<svg width="43" height="38" viewBox="0 0 43 38" fill="none" xmlns="http://www.w3.org/2000/svg">
<path d="M40.4889 0H2.41035C0.487109 0 0 0.495508 0 2.42715V35.1979C0 37.1547 0.487109 37.625 2.41035 37.625H40.4889C42.5381 37.625 43 37.1883 43 35.1307V2.53633C43 0.470313 42.5465 0 40.4889 0ZM14.9828 15.8143C12.6732 14.1178 8.92754 15.0836 7.91133 17.7795C7.5502 18.7117 7.13027 18.5773 6.4416 18.4766C5.62695 18.3506 4.99707 18.2078 4.55195 18.0146C2.1332 17.0572 5.27422 13.3703 6.64316 12.6145C10.0949 10.8172 13.6475 10.75 17.1664 12.2113C20.6014 13.6223 20.0639 17.1832 20.0639 23.0033C20.2906 25.1701 19.7027 27.8996 20.8449 30.4611C21.0045 30.8307 20.8785 31.1246 20.6182 31.3598C19.9127 31.9225 17.3176 31.5445 16.7045 30.7383C16.5449 30.5535 16.5533 30.4359 16.377 30.2176C16.0746 29.89 15.7639 30.0328 15.3775 30.3016C10.5568 33.3586 3.59453 32.0988 3.03184 26.665C2.77148 24.2043 4.07324 21.8695 6.35762 20.7021C9.56582 19.0645 15.7807 19.7111 15.9318 18.107C16.0242 17.2504 15.7723 16.4189 14.9828 15.8143ZM39.0611 34.4588C39.0611 35.727 38.1289 35.2902 37.5662 35.2902H4.40078C3.7793 35.2902 2.87227 35.6934 2.90586 34.3916C2.93945 33.2242 3.7877 33.6273 4.34199 33.6273C15.4531 33.5938 26.5559 33.5938 37.667 33.6273C38.2381 33.6273 39.0611 33.2578 39.0611 34.4588ZM39.3803 5.86211V30.3016C39.3803 30.7803 39.3215 31.4689 38.7 31.4689C37.6586 31.4354 36.3904 32.0652 35.6682 30.9986C35.1811 30.268 35.0131 30.6627 34.6268 30.8979C30.142 33.3922 23.8684 31.4941 22.4994 23.7424C21.9871 20.9373 22.4406 18.107 23.818 15.3439C24.809 13.3367 28.5967 8.95273 35.2482 12.7824V6.81953C35.2482 4.61914 35.2398 4.61914 37.4318 4.61914C37.6922 4.61914 37.9861 4.65273 38.2465 4.61914C39.0947 4.55195 39.3887 4.98867 39.3887 5.82012C39.3803 5.83691 39.3803 5.84531 39.3803 5.86211ZM35.0551 25.3717C33.4174 29.3693 28.9326 29.0082 27.4965 25.8084C26.2283 23.0117 26.1947 20.0807 27.5301 17.284C28.899 14.4201 32.5439 14.2857 34.3748 16.8809C36.1049 19.2996 35.6262 23.9859 35.0551 25.3717ZM10.2965 28.3363C9.6666 28.2271 7.525 28.0592 7.46621 26.0016C7.43262 24.8342 8.12129 24.0699 9.1291 23.8348C11.1783 23.3393 13.2695 23.0033 15.3187 22.6002C16.0662 22.4322 15.9402 22.9697 15.9738 23.398C16.0914 26.1695 13.7818 28.3699 10.2965 28.3363Z" fill="#243E8B"/>
</svg>
