<svg width="41" height="29" viewBox="0 0 41 29" fill="none" xmlns="http://www.w3.org/2000/svg">
<path d="M0 26.65C0 27.782 0.918016 28.7 2.05 28.7H38.95C40.082 28.7 41 27.782 41 26.65V6.15H0V26.65ZM28.7 13.325C28.7 12.7587 29.1587 12.3 29.725 12.3H35.875C36.4413 12.3 36.9 12.7587 36.9 13.325V15.375C36.9 15.9413 36.4413 16.4 35.875 16.4H29.725C29.1587 16.4 28.7 15.9413 28.7 15.375V13.325ZM28.7 21.0125C28.7 20.7294 28.9293 20.5 29.2125 20.5H36.3875C36.6707 20.5 36.9 20.7294 36.9 21.0125V22.0375C36.9 22.3207 36.6707 22.55 36.3875 22.55H29.2125C28.9293 22.55 28.7 22.3207 28.7 22.0375V21.0125ZM4.1 14.8625C4.1 14.5794 4.32934 14.35 4.6125 14.35H24.0875C24.3707 14.35 24.6 14.5794 24.6 14.8625V15.8875C24.6 16.1707 24.3707 16.4 24.0875 16.4H4.6125C4.32934 16.4 4.1 16.1707 4.1 15.8875V14.8625ZM4.1 21.0125C4.1 20.7294 4.32934 20.5 4.6125 20.5H15.8875C16.1707 20.5 16.4 20.7294 16.4 21.0125V22.0375C16.4 22.3207 16.1707 22.55 15.8875 22.55H4.6125C4.32934 22.55 4.1 22.3207 4.1 22.0375V21.0125ZM39.975 0H1.025C0.458687 0 0 0.458688 0 1.025V4.1H41V1.025C41 0.458688 40.5413 0 39.975 0Z" fill="#243E8B"/>
</svg>
