<svg width="55" height="33" viewBox="0 0 55 33" fill="none" xmlns="http://www.w3.org/2000/svg">
<path d="M30.25 19.25H28.875V11.6875C28.875 11.3077 28.5673 11 28.1875 11H27.0205C26.6131 11 26.2152 11.1203 25.8766 11.3463L24.5592 12.2246C24.4841 12.2746 24.4195 12.339 24.3693 12.414C24.319 12.4889 24.284 12.5731 24.2663 12.6616C24.2486 12.7501 24.2485 12.8412 24.266 12.9298C24.2836 13.0183 24.3183 13.1026 24.3684 13.1777L25.1316 14.3215C25.1816 14.3966 25.2459 14.4612 25.3209 14.5114C25.3959 14.5617 25.48 14.5967 25.5685 14.6144C25.6571 14.6321 25.7482 14.6322 25.8367 14.6147C25.9253 14.5972 26.0095 14.5624 26.0846 14.5123L26.125 14.4856V19.25H24.75C24.3702 19.25 24.0625 19.5577 24.0625 19.9375V21.3125C24.0625 21.6923 24.3702 22 24.75 22H30.25C30.6298 22 30.9375 21.6923 30.9375 21.3125V19.9375C30.9375 19.5577 30.6298 19.25 30.25 19.25ZM52.25 0H2.75C1.23148 0 0 1.23148 0 2.75V30.25C0 31.7685 1.23148 33 2.75 33H52.25C53.7685 33 55 31.7685 55 30.25V2.75C55 1.23148 53.7685 0 52.25 0ZM4.125 28.875V23.375C7.16289 23.375 9.625 25.8371 9.625 28.875H4.125ZM4.125 9.625V4.125H9.625C9.625 7.16289 7.16289 9.625 4.125 9.625ZM27.5 26.125C22.9436 26.125 19.25 21.8152 19.25 16.5C19.25 11.1839 22.9436 6.875 27.5 6.875C32.0564 6.875 35.75 11.1839 35.75 16.5C35.75 21.817 32.0547 26.125 27.5 26.125ZM50.875 28.875H45.375C45.375 25.8371 47.8371 23.375 50.875 23.375V28.875ZM50.875 9.625C47.8371 9.625 45.375 7.16289 45.375 4.125H50.875V9.625Z" fill="#243E8B"/>
</svg>
