<svg width="40" height="40" viewBox="0 0 40 40" fill="none" xmlns="http://www.w3.org/2000/svg">
<path d="M39.936 29.5927L37.8502 17.0931C37.647 15.89 36.608 15.0073 35.3815 15.0073H16.2572V10.0074H23.7569C24.4444 10.0074 25.0069 9.44496 25.0069 8.75749V1.24995C25.0069 0.562479 24.4444 0 23.7569 0H3.75767C3.0702 0 2.50772 0.562479 2.50772 1.24995V8.74968C2.50772 9.43715 3.0702 9.99963 3.75767 9.99963H11.2574V14.9994H4.62483C3.40612 14.9994 2.35929 15.8822 2.15617 17.0853L0.0703099 29.5848C0.0234366 29.8583 0 30.1317 0 30.4051V37.4986C0 38.8814 1.11715 39.9985 2.49991 39.9985H37.4986C38.8814 39.9985 39.9985 38.8814 39.9985 37.4986V30.4129C40.0063 30.1395 39.9829 29.8661 39.936 29.5927ZM21.882 19.3743C21.882 18.6868 22.4445 18.1243 23.132 18.1243H24.3819C25.0694 18.1243 25.6319 18.6868 25.6319 19.3743V20.6242C25.6319 21.3117 25.0694 21.8742 24.3819 21.8742H23.132C22.4445 21.8742 21.882 21.3117 21.882 20.6242V19.3743ZM19.3821 24.3741H20.6321C21.3195 24.3741 21.882 24.9366 21.882 25.6241V26.874C21.882 27.5615 21.3195 28.124 20.6321 28.124H19.3821C18.6946 28.124 18.1321 27.5615 18.1321 26.874V25.6241C18.1321 24.9366 18.6946 24.3741 19.3821 24.3741ZM16.8822 18.1243C17.5697 18.1243 18.1321 18.6868 18.1321 19.3743V20.6242C18.1321 21.3117 17.5697 21.8742 16.8822 21.8742H15.6322C14.9448 21.8742 14.3823 21.3117 14.3823 20.6242V19.3743C14.3823 18.6868 14.9448 18.1243 15.6322 18.1243H16.8822ZM6.25758 6.24977V3.74986H21.257V6.24977H6.25758ZM9.38247 21.8742H8.13251C7.44504 21.8742 6.88256 21.3117 6.88256 20.6242V19.3743C6.88256 18.6868 7.44504 18.1243 8.13251 18.1243H9.38247C10.0699 18.1243 10.6324 18.6868 10.6324 19.3743V20.6242C10.6324 21.3117 10.0699 21.8742 9.38247 21.8742ZM10.6324 26.874V25.6241C10.6324 24.9366 11.1949 24.3741 11.8824 24.3741H13.1323C13.8198 24.3741 14.3823 24.9366 14.3823 25.6241V26.874C14.3823 27.5615 13.8198 28.124 13.1323 28.124H11.8824C11.1949 28.124 10.6324 27.5615 10.6324 26.874ZM27.5068 35.6237C27.5068 35.9674 27.2256 36.2487 26.8818 36.2487H13.1323C12.7886 36.2487 12.5074 35.9674 12.5074 35.6237V34.3737C12.5074 34.03 12.7886 33.7488 13.1323 33.7488H26.8818C27.2256 33.7488 27.5068 34.03 27.5068 34.3737V35.6237ZM29.3817 26.874C29.3817 27.5615 28.8193 28.124 28.1318 28.124H26.8818C26.1943 28.124 25.6319 27.5615 25.6319 26.874V25.6241C25.6319 24.9366 26.1943 24.3741 26.8818 24.3741H28.1318C28.8193 24.3741 29.3817 24.9366 29.3817 25.6241V26.874ZM33.1316 20.6242C33.1316 21.3117 32.5691 21.8742 31.8816 21.8742H30.6317C29.9442 21.8742 29.3817 21.3117 29.3817 20.6242V19.3743C29.3817 18.6868 29.9442 18.1243 30.6317 18.1243H31.8816C32.5691 18.1243 33.1316 18.6868 33.1316 19.3743V20.6242Z" fill="white"/>
</svg>
