<?xml version="1.0" encoding="UTF-8"?>
<!DOCTYPE svg PUBLIC "-//W3C//DTD SVG 1.1//EN" "http://www.w3.org/Graphics/SVG/1.1/DTD/svg11.dtd">
<svg xmlns="http://www.w3.org/2000/svg" version="1.1" width="512px" height="512px" style="shape-rendering:geometricPrecision; text-rendering:geometricPrecision; image-rendering:optimizeQuality; fill-rule:evenodd; clip-rule:evenodd" xmlns:xlink="http://www.w3.org/1999/xlink">
<g><path style="opacity:0.985" fill="#000000" d="M 38.5,25.5 C 60.9828,29.8701 83.3161,35.0367 105.5,41C 128.127,48.6285 141.961,64.1285 147,87.5C 148.09,95.4798 148.924,103.48 149.5,111.5C 196.167,111.5 242.833,111.5 289.5,111.5C 284.725,169.799 308.725,211.299 361.5,236C 402.251,250.657 440.251,245.49 475.5,220.5C 473.929,239.414 471.762,258.414 469,277.5C 467.161,296.003 457.328,307.837 439.5,313C 351.467,320.131 263.467,327.464 175.5,335C 177.444,345.717 178.777,356.55 179.5,367.5C 265.501,367.333 351.501,367.5 437.5,368C 464.422,374.922 480.255,392.089 485,419.5C 486.231,453.246 470.731,474.746 438.5,484C 408.419,488.376 386.252,477.21 372,450.5C 367.742,439.212 366.408,427.545 368,415.5C 368.855,409.963 370.688,404.796 373.5,400C 323.497,399.167 273.497,399.333 223.5,400.5C 234.087,426.478 229.754,449.644 210.5,470C 185.579,489.403 159.913,490.403 133.5,473C 110.906,452.448 105.406,427.948 117,399.5C 123.944,386.556 134.111,377.056 147.5,371C 136.192,277.9 125.026,184.734 114,91.5C 111.715,83.5486 106.881,77.7152 99.5,74C 77.1118,68.1532 54.7785,62.1532 32.5,56C 24.8,48.7667 23.6333,40.6 29,31.5C 31.8426,28.8373 35.0093,26.8373 38.5,25.5 Z M 169.5,399.5 C 189.741,402.658 198.241,414.325 195,434.5C 187.008,450.911 174.508,455.744 157.5,449C 146.735,442.058 142.569,432.225 145,419.5C 149.091,407.72 157.258,401.053 169.5,399.5 Z M 425.5,399.5 C 445.741,402.658 454.241,414.325 451,434.5C 443.008,450.911 430.508,455.744 413.5,449C 402.735,442.058 398.569,432.225 401,419.5C 405.091,407.72 413.258,401.053 425.5,399.5 Z"/></g>
<g><path style="opacity:0.961" fill="#000000" d="M 348.5,57.5 C 352.702,57.3839 356.702,58.2173 360.5,60C 375.014,74.6807 389.681,89.1807 404.5,103.5C 419.348,88.8182 434.348,74.3182 449.5,60C 458.106,55.8665 465.606,57.3665 472,64.5C 475.333,70.8333 475.333,77.1667 472,83.5C 457.319,98.0139 442.819,112.681 428.5,127.5C 442.819,142.319 457.319,156.986 472,171.5C 477.802,185.899 473.136,194.565 458,197.5C 454.237,197.135 450.737,195.968 447.5,194C 433.319,179.653 418.986,165.486 404.5,151.5C 389.681,165.819 375.014,180.319 360.5,195C 346.379,200.443 338.046,195.776 335.5,181C 335.264,176.71 336.431,172.877 339,169.5C 353.014,155.653 366.847,141.653 380.5,127.5C 365.818,112.652 351.318,97.6519 337,82.5C 332.808,70.2262 336.642,61.8928 348.5,57.5 Z"/></g>
</svg>
