<?xml version="1.0" encoding="UTF-8"?>
<!DOCTYPE svg PUBLIC "-//W3C//DTD SVG 1.1//EN" "http://www.w3.org/Graphics/SVG/1.1/DTD/svg11.dtd">
<svg xmlns="http://www.w3.org/2000/svg" version="1.1" width="512px" height="512px" style="shape-rendering:geometricPrecision; text-rendering:geometricPrecision; image-rendering:optimizeQuality; fill-rule:evenodd; clip-rule:evenodd" xmlns:xlink="http://www.w3.org/1999/xlink">
<g><path style="opacity:0.956" fill="#000000" d="M 34.5,-0.5 C 37.1667,-0.5 39.8333,-0.5 42.5,-0.5C 50.1255,4.77544 57.7921,10.1088 65.5,15.5C 73.1552,10.4969 80.4886,5.16353 87.5,-0.5C 91.5,-0.5 95.5,-0.5 99.5,-0.5C 106.222,5.04123 113.388,10.0412 121,14.5C 128.612,10.0412 135.778,5.04123 142.5,-0.5C 146.833,-0.5 151.167,-0.5 155.5,-0.5C 162.355,4.85292 169.522,9.85292 177,14.5C 184.478,9.85292 191.645,4.85292 198.5,-0.5C 202.5,-0.5 206.5,-0.5 210.5,-0.5C 217.355,4.85292 224.522,9.85292 232,14.5C 239.478,9.85292 246.645,4.85292 253.5,-0.5C 257.833,-0.5 262.167,-0.5 266.5,-0.5C 273.222,5.04123 280.388,10.0412 288,14.5C 295.612,10.0412 302.778,5.04123 309.5,-0.5C 313.167,-0.5 316.833,-0.5 320.5,-0.5C 328.125,4.77544 335.792,10.1088 343.5,15.5C 351.208,10.1088 358.875,4.77544 366.5,-0.5C 368.833,-0.5 371.167,-0.5 373.5,-0.5C 376.397,0.55813 378.564,2.55813 380,5.5C 380.333,64.5 380.667,123.5 381,182.5C 412.667,225.167 444.333,267.833 476,310.5C 486.894,331.005 487.227,351.672 477,372.5C 456.273,403.564 435.94,434.897 416,466.5C 414.592,470.057 413.592,473.724 413,477.5C 412.667,486.5 412.333,495.5 412,504.5C 410.065,508.802 406.732,510.802 402,510.5C 396.767,510.883 393.434,508.55 392,503.5C 389.613,485.796 391.947,468.796 399,452.5C 420.165,420.84 440.832,388.84 461,356.5C 465.184,343.08 463.517,330.413 456,318.5C 430.615,285.45 405.615,252.116 381,218.5C 380.667,259.5 380.333,300.5 380,341.5C 372.708,364.903 356.874,374.737 332.5,371C 315.553,366.056 305.72,354.889 303,337.5C 302.667,299.167 302.333,260.833 302,222.5C 294.511,204.005 281.678,198.838 263.5,207C 258.422,210.737 254.922,215.57 253,221.5C 252.667,302.167 252.333,382.833 252,463.5C 250.006,471.789 244.839,474.622 236.5,472C 234.667,470.833 233.167,469.333 232,467.5C 231.667,460.167 231.333,452.833 231,445.5C 224.922,450.122 218.755,454.622 212.5,459C 207.167,462.333 201.833,462.333 196.5,459C 190.07,454.371 183.57,449.871 177,445.5C 169.256,450.291 161.756,455.457 154.5,461C 150.333,463.062 146.333,462.729 142.5,460C 135.596,454.76 128.429,449.927 121,445.5C 113.764,450.204 106.597,455.037 99.5,460C 95.5,462 91.5,462 87.5,460C 80.3333,454.833 73.1667,449.667 66,444.5C 58.1667,449.667 50.3333,454.833 42.5,460C 37.5626,461.369 33.396,460.203 30,456.5C 28.3365,306.247 28.0031,155.913 29,5.5C 30.3597,2.97739 32.193,0.977392 34.5,-0.5 Z M 148.5,21.5 C 156.483,26.1612 164.15,31.3278 171.5,37C 175.167,39 178.833,39 182.5,37C 189.701,31.904 197.034,27.0707 204.5,22.5C 211.966,27.0707 219.299,31.904 226.5,37C 230.167,39 233.833,39 237.5,37C 244.739,31.4631 252.239,26.2964 260,21.5C 266.833,26.3333 273.667,31.1667 280.5,36C 284.67,38.7875 289.003,39.1209 293.5,37C 300.597,32.0369 307.764,27.2036 315,22.5C 323.404,27.2855 331.57,32.4522 339.5,38C 342.167,38.6667 344.833,38.6667 347.5,38C 351.333,35.5 355.167,33 359,30.5C 359.667,133.167 359.667,235.833 359,338.5C 352.317,351.209 342.817,354.042 330.5,347C 327.894,345.062 326.061,342.562 325,339.5C 323.69,299.546 323.023,259.546 323,219.5C 314.672,191.186 295.839,179.019 266.5,183C 247.916,187.918 236.416,199.751 232,218.5C 231.833,286.169 231.333,353.836 230.5,421.5C 221.566,426.442 212.899,431.775 204.5,437.5C 196.785,433.292 189.451,428.458 182.5,423C 178.833,421 175.167,421 171.5,423C 164.305,428.361 156.972,433.528 149.5,438.5C 142.362,433.862 135.362,429.028 128.5,424C 124.32,421.294 119.987,420.961 115.5,423C 108.299,428.096 100.966,432.929 93.5,437.5C 85.3896,432.566 77.3896,427.4 69.5,422C 66.8333,421.333 64.1667,421.333 61.5,422C 57.2467,424.71 53.0801,427.543 49,430.5C 48.3333,296.833 48.3333,163.167 49,29.5C 52.7336,32.9517 56.9003,35.785 61.5,38C 64.1667,38.6667 66.8333,38.6667 69.5,38C 77.4298,32.4522 85.5965,27.2855 94,22.5C 101.236,27.2036 108.403,32.0369 115.5,37C 119.997,39.1209 124.33,38.7875 128.5,36C 135.348,31.3035 142.015,26.4701 148.5,21.5 Z M 108.5,252.5 C 135.167,252.5 161.833,252.5 188.5,252.5C 188.5,278.5 188.5,304.5 188.5,330.5C 161.833,330.5 135.167,330.5 108.5,330.5C 108.5,304.5 108.5,278.5 108.5,252.5 Z"/></g>
<g><path style="opacity:0.944" fill="#000000" d="M 113.5,75.5 C 122.567,75.0649 127.4,79.3982 128,88.5C 140.388,92.2796 146.055,100.613 145,113.5C 139.48,121.955 133.146,122.622 126,115.5C 124.872,113.655 124.372,111.655 124.5,109.5C 119.5,109.5 114.5,109.5 109.5,109.5C 109.5,114.5 109.5,119.5 109.5,124.5C 116.508,124.334 123.508,124.5 130.5,125C 138.389,127.258 143.222,132.425 145,140.5C 145.667,148.5 145.667,156.5 145,164.5C 142.675,173.491 137.009,179.158 128,181.5C 126.56,193.468 120.393,196.968 109.5,192C 107.229,188.889 106.062,185.389 106,181.5C 92.4988,177.508 86.8321,168.508 89,154.5C 92.2769,148.891 97.1103,147.058 103.5,149C 107.662,151.622 109.662,155.455 109.5,160.5C 114.5,160.5 119.5,160.5 124.5,160.5C 124.5,155.5 124.5,150.5 124.5,145.5C 117.112,145.747 109.779,145.247 102.5,144C 95.5724,141.406 91.0724,136.573 89,129.5C 88.0832,120.091 88.4165,110.758 90,101.5C 93.2586,94.5713 98.5919,90.2379 106,88.5C 105.978,82.5253 108.478,78.192 113.5,75.5 Z"/></g>
<g><path style="opacity:0.944" fill="#000000" d="M 186.5,76.5 C 230.168,76.3333 273.835,76.5 317.5,77C 324.224,81.0634 325.724,86.5634 322,93.5C 320.421,95.0412 318.587,96.2078 316.5,97C 273.5,97.6667 230.5,97.6667 187.5,97C 180.447,93.4228 178.614,87.9228 182,80.5C 183.397,78.9297 184.897,77.5964 186.5,76.5 Z"/></g>
<g><path style="opacity:0.944" fill="#000000" d="M 186.5,124.5 C 230.168,124.333 273.835,124.5 317.5,125C 324.224,129.063 325.724,134.563 322,141.5C 320.421,143.041 318.587,144.208 316.5,145C 273.5,145.667 230.5,145.667 187.5,145C 182.45,143.566 180.117,140.233 180.5,135C 180.324,130.177 182.324,126.677 186.5,124.5 Z"/></g>
<g><path style="opacity:0.932" fill="#000000" d="M 186.5,172.5 C 200.837,172.333 215.171,172.5 229.5,173C 235.257,175.682 237.424,180.182 236,186.5C 234.5,189.333 232.333,191.5 229.5,193C 215.5,193.667 201.5,193.667 187.5,193C 182.45,191.566 180.117,188.233 180.5,183C 180.324,178.177 182.324,174.677 186.5,172.5 Z"/></g>
<g><path style="opacity:0.952" fill="#000000" d="M 95.5,231.5 C 130.835,231.333 166.168,231.5 201.5,232C 205.112,232.889 207.612,235.055 209,238.5C 209.667,274.167 209.667,309.833 209,345.5C 208.215,347.286 207.049,348.786 205.5,350C 168.251,351.654 130.918,351.987 93.5,351C 90.8127,349.125 88.9794,346.625 88,343.5C 87.3333,308.833 87.3333,274.167 88,239.5C 89.3532,235.65 91.8532,232.983 95.5,231.5 Z M 108.5,252.5 C 108.5,278.5 108.5,304.5 108.5,330.5C 135.167,330.5 161.833,330.5 188.5,330.5C 188.5,304.5 188.5,278.5 188.5,252.5C 161.833,252.5 135.167,252.5 108.5,252.5 Z"/></g>
<g><path style="opacity:0.928" fill="#000000" d="M 168.5,263.5 C 180.909,263.078 185.076,268.745 181,280.5C 169.833,291.667 158.667,302.833 147.5,314C 143.33,316.788 138.997,317.121 134.5,315C 128.634,309.469 123.134,303.635 118,297.5C 115.178,287.293 119.011,282.127 129.5,282C 134.193,283.528 137.859,286.362 140.5,290.5C 149.881,281.451 159.214,272.451 168.5,263.5 Z"/></g>
<g><path style="opacity:0.942" fill="#000000" d="M 95.5,372.5 C 131.168,372.333 166.835,372.5 202.5,373C 209.414,376.676 211.248,382.176 208,389.5C 206.786,391.049 205.286,392.215 203.5,393C 167.167,393.667 130.833,393.667 94.5,393C 88.102,389.473 86.2686,384.307 89,377.5C 90.8049,375.174 92.9716,373.508 95.5,372.5 Z"/></g>
<g><path style="opacity:0.909" fill="#000000" d="M 236.5,490.5 C 248.324,488.824 253.158,493.824 251,505.5C 247.345,510.275 242.512,511.775 236.5,510C 231.725,506.345 230.225,501.512 232,495.5C 233.707,493.963 235.207,492.296 236.5,490.5 Z"/></g>
</svg>
