<?xml version="1.0" encoding="UTF-8"?>
<!DOCTYPE svg PUBLIC "-//W3C//DTD SVG 1.1//EN" "http://www.w3.org/Graphics/SVG/1.1/DTD/svg11.dtd">
<svg xmlns="http://www.w3.org/2000/svg" version="1.1" width="512px" height="512px" style="shape-rendering:geometricPrecision; text-rendering:geometricPrecision; image-rendering:optimizeQuality; fill-rule:evenodd; clip-rule:evenodd" xmlns:xlink="http://www.w3.org/1999/xlink">
<g><path style="opacity:0.964" fill="#000000" d="M 147.5,-0.5 C 252.5,-0.5 357.5,-0.5 462.5,-0.5C 474.255,3.42419 481.755,11.4242 485,23.5C 485.667,159.167 485.667,294.833 485,430.5C 458.633,458.034 431.799,485.034 404.5,511.5C 318.833,511.5 233.167,511.5 147.5,511.5C 134.422,507.738 126.588,499.072 124,485.5C 123.667,444.167 123.333,402.833 123,361.5C 67.1635,342.497 34.8302,303.83 26,245.5C 22.1366,181.433 48.6366,134.933 105.5,106C 111.304,103.678 117.137,101.512 123,99.5C 123.045,73.1259 123.712,46.7926 125,20.5C 128.917,9.49047 136.417,2.49047 147.5,-0.5 Z M 153.5,21.5 C 254.167,21.3333 354.834,21.5 455.5,22C 458.573,22.7386 460.74,24.5719 462,27.5C 462.5,39.4954 462.667,51.4954 462.5,63.5C 357.167,63.5 251.833,63.5 146.5,63.5C 146.333,51.4954 146.5,39.4954 147,27.5C 148.494,24.6865 150.66,22.6865 153.5,21.5 Z M 146.5,85.5 C 251.833,85.5 357.167,85.5 462.5,85.5C 462.5,195.167 462.5,304.833 462.5,414.5C 445.83,414.333 429.163,414.5 412.5,415C 399.991,418.175 392.158,426.009 389,438.5C 388.5,455.497 388.333,472.497 388.5,489.5C 310.499,489.667 232.499,489.5 154.5,489C 150.98,488.496 148.48,486.663 147,483.5C 146.167,444.162 146.333,404.829 147.5,365.5C 193.516,369.664 232.183,354.83 263.5,321C 286.167,320.667 308.833,320.333 331.5,320C 341.432,317.112 344.265,310.945 340,301.5C 338.786,299.951 337.286,298.785 335.5,298C 317.158,297.833 298.824,297.333 280.5,296.5C 290.085,279.745 295.419,261.745 296.5,242.5C 309.171,242.667 321.838,242.5 334.5,242C 341.968,237.967 343.801,232.133 340,224.5C 338.048,222.106 335.548,220.606 332.5,220C 320.591,219.822 308.758,219.322 297,218.5C 295.554,200.047 290.387,182.714 281.5,166.5C 298.824,165.667 316.157,165.167 333.5,165C 341.258,161.835 343.758,156.335 341,148.5C 339.039,145.865 336.539,144.031 333.5,143C 310.493,142.833 287.493,142.333 264.5,141.5C 233.342,106.552 194.342,91.219 147.5,95.5C 146.513,92.2317 146.18,88.8984 146.5,85.5 Z M 148.5,117.5 C 198.04,114.682 235.54,134.349 261,176.5C 281.538,218.982 278.538,259.648 252,298.5C 215.653,341.387 170.819,353.553 117.5,335C 68.241,311.004 45.4077,271.504 49,216.5C 59.4704,160.529 92.637,127.529 148.5,117.5 Z M 218.5,180.5 C 221.731,182.22 224.564,184.553 227,187.5C 227.667,188.167 227.667,188.833 227,189.5C 196.667,219.833 166.333,250.167 136,280.5C 122.319,266.986 108.819,253.319 95.5,239.5C 97.8333,236.5 100.5,233.833 103.5,231.5C 112.319,239.819 120.986,248.319 129.5,257C 133.039,258.504 136.705,258.837 140.5,258C 167.007,232.66 193.007,206.827 218.5,180.5 Z M 416.5,437.5 C 426.172,437.334 435.839,437.5 445.5,438C 434.333,449.167 423.167,460.333 412,471.5C 411.333,461.833 411.333,452.167 412,442.5C 413.025,440.313 414.525,438.646 416.5,437.5 Z"/></g>
<g><path style="opacity:0.932" fill="#000000" d="M 370.5,142.5 C 384.837,142.333 399.171,142.5 413.5,143C 421.369,147.279 423.202,153.446 419,161.5C 417.421,163.041 415.587,164.208 413.5,165C 399.167,165.667 384.833,165.667 370.5,165C 362.565,161.456 360.398,155.622 364,147.5C 365.805,145.174 367.972,143.508 370.5,142.5 Z"/></g>
<g><path style="opacity:0.947" fill="#000000" d="M 217.5,155.5 C 222.095,155.719 226.429,156.885 230.5,159C 236.667,165.167 242.833,171.333 249,177.5C 253.228,184.319 253.561,191.319 250,198.5C 216.528,232.972 182.695,267.139 148.5,301C 144.649,303.496 140.483,304.996 136,305.5C 131.517,304.996 127.351,303.496 123.5,301C 105.605,283.774 88.4386,265.94 72,247.5C 69.6302,240.532 70.2968,233.865 74,227.5C 79.8333,221.667 85.6667,215.833 91.5,210C 98.6554,205.761 105.989,205.427 113.5,209C 121.136,215.635 128.47,222.635 135.5,230C 136.167,230.667 136.833,230.667 137.5,230C 161.167,206.333 184.833,182.667 208.5,159C 211.459,157.396 214.459,156.229 217.5,155.5 Z M 218.5,180.5 C 193.007,206.827 167.007,232.66 140.5,258C 136.705,258.837 133.039,258.504 129.5,257C 120.986,248.319 112.319,239.819 103.5,231.5C 100.5,233.833 97.8333,236.5 95.5,239.5C 108.819,253.319 122.319,266.986 136,280.5C 166.333,250.167 196.667,219.833 227,189.5C 227.667,188.833 227.667,188.167 227,187.5C 224.564,184.553 221.731,182.22 218.5,180.5 Z"/></g>
<g><path style="opacity:0.933" fill="#000000" d="M 372.5,219.5 C 386.892,219.07 401.226,219.57 415.5,221C 423.756,228.449 423.422,235.449 414.5,242C 399.5,242.667 384.5,242.667 369.5,242C 363.135,238.754 360.968,233.587 363,226.5C 365.086,222.555 368.253,220.221 372.5,219.5 Z"/></g>
<g><path style="opacity:0.934" fill="#000000" d="M 369.5,297.5 C 384.504,297.333 399.504,297.5 414.5,298C 422.932,303.916 423.598,310.583 416.5,318C 414.608,318.973 412.608,319.64 410.5,320C 396.453,320.909 382.453,320.575 368.5,319C 364.047,316.929 362.047,313.429 362.5,308.5C 362.58,303.329 364.913,299.662 369.5,297.5 Z"/></g>
<g><path style="opacity:0.942" fill="#000000" d="M 304.5,374.5 C 340.835,374.333 377.168,374.5 413.5,375C 421.73,379.166 423.563,385.332 419,393.5C 417.2,395.317 415.034,396.484 412.5,397C 376.5,397.667 340.5,397.667 304.5,397C 296.567,393.412 294.4,387.578 298,379.5C 299.805,377.174 301.972,375.508 304.5,374.5 Z"/></g>
</svg>
