<svg width="29" height="46" viewBox="0 0 29 46" fill="none" xmlns="http://www.w3.org/2000/svg">
<path d="M24.4375 0H4.3125C1.93164 0 0 1.93164 0 4.3125V41.6875C0 44.0684 1.93164 46 4.3125 46H24.4375C26.8184 46 28.75 44.0684 28.75 41.6875V4.3125C28.75 1.93164 26.8184 0 24.4375 0ZM14.375 43.125C12.7848 43.125 11.5 41.8402 11.5 40.25C11.5 38.6598 12.7848 37.375 14.375 37.375C15.9652 37.375 17.25 38.6598 17.25 40.25C17.25 41.8402 15.9652 43.125 14.375 43.125ZM24.4375 33.4219C24.4375 34.0148 23.9523 34.5 23.3594 34.5H5.39062C4.79766 34.5 4.3125 34.0148 4.3125 33.4219V5.39062C4.3125 4.79766 4.79766 4.3125 5.39062 4.3125H23.3594C23.9523 4.3125 24.4375 4.79766 24.4375 5.39062V33.4219Z" fill="white"/>
</svg>
