<svg width="31" height="41" viewBox="0 0 31 41" fill="none" xmlns="http://www.w3.org/2000/svg">
<path d="M15.5111 21.7172C16.2158 21.7172 16.7523 21.9334 17.1367 22.3658C17.9055 23.2387 17.9215 24.9844 17.1207 25.8973C16.7283 26.3457 16.1678 26.5779 15.4311 26.5779H13.277V21.7172H15.5111ZM30.1895 8.4082L22.3418 0.560547C21.9814 0.200195 21.493 0 20.9805 0H20.5V10.25H30.75V9.76152C30.75 9.25703 30.5498 8.76855 30.1895 8.4082ZM17.9375 10.8906V0H1.92188C0.856836 0 0 0.856836 0 1.92187V39.0781C0 40.1432 0.856836 41 1.92188 41H28.8281C29.8932 41 30.75 40.1432 30.75 39.0781V12.8125H19.8594C18.8023 12.8125 17.9375 11.9477 17.9375 10.8906ZM22.1816 24.1195C22.1816 31.3506 15.0707 30.3336 13.285 30.3336V34.9141C13.285 35.4426 12.8525 35.875 12.324 35.875H9.85762C9.3291 35.875 8.89668 35.4426 8.89668 34.9141V18.9145C8.89668 18.3859 9.3291 17.9535 9.85762 17.9535H16.3439C19.9074 17.9535 22.1816 20.5801 22.1816 24.1195Z" fill="#243E8B"/>
</svg>
