<?xml version="1.0" encoding="UTF-8"?>
<!DOCTYPE svg PUBLIC "-//W3C//DTD SVG 1.1//EN" "http://www.w3.org/Graphics/SVG/1.1/DTD/svg11.dtd">
<svg xmlns="http://www.w3.org/2000/svg" version="1.1" width="512px" height="512px" style="shape-rendering:geometricPrecision; text-rendering:geometricPrecision; image-rendering:optimizeQuality; fill-rule:evenodd; clip-rule:evenodd" xmlns:xlink="http://www.w3.org/1999/xlink">
<g><path style="opacity:0.948" fill="#000000" d="M 297.5,-0.5 C 300.5,-0.5 303.5,-0.5 306.5,-0.5C 373.438,36.3053 440.438,73.1386 507.5,110C 509.07,111.397 510.404,112.897 511.5,114.5C 511.5,140.833 511.5,167.167 511.5,193.5C 507.658,198.246 502.658,199.746 496.5,198C 494.667,196.833 493.167,195.333 492,193.5C 491.667,174.5 491.333,155.5 491,136.5C 472.581,146.96 454.081,157.293 435.5,167.5C 434.667,189.492 434.167,211.492 434,233.5C 432.878,235.624 431.378,237.457 429.5,239C 414.833,247 400.167,255 385.5,263C 379.754,264.723 375.254,263.223 372,258.5C 370.872,240.223 370.038,221.889 369.5,203.5C 350.833,213.833 332.167,224.167 313.5,234.5C 312.333,299.497 312.167,364.497 313,429.5C 372.167,397 431.333,364.5 490.5,332C 491.328,309.239 491.828,286.406 492,263.5C 495.655,258.725 500.488,257.225 506.5,259C 508.362,260.366 510.028,261.866 511.5,263.5C 511.5,289.833 511.5,316.167 511.5,342.5C 510.404,344.103 509.07,345.603 507.5,347C 440.66,383.921 373.66,420.587 306.5,457C 303.5,457.667 300.5,457.667 297.5,457C 283.253,449.294 269.086,441.46 255,433.5C 232.637,477.432 197.137,503.432 148.5,511.5C 137.833,511.5 127.167,511.5 116.5,511.5C 101.284,509.19 86.6177,504.69 72.5,498C 67.1667,492 67.1667,486 72.5,480C 75.406,478.682 78.406,478.348 81.5,479C 124.674,498.32 165.341,493.986 203.5,466C 244.449,428.366 254.949,383.532 235,331.5C 206.151,278.498 161.985,257.998 102.5,270C 56.8246,285.01 29.6579,316.177 21,363.5C 18.1839,386.603 21.8505,408.603 32,429.5C 32.8146,440.012 27.9813,444.178 17.5,442C 15.714,441.215 14.214,440.049 13,438.5C 6.30922,424.377 1.80922,409.711 -0.5,394.5C -0.5,383.5 -0.5,372.5 -0.5,361.5C 7.76898,312.791 34.1023,277.624 78.5,256C 83.0199,253.993 87.6866,252.493 92.5,251.5C 92.0101,205.082 92.5101,158.749 94,112.5C 161.815,74.6787 229.648,37.012 297.5,-0.5 Z M 301.5,21.5 C 360.967,53.7337 420.3,86.2337 479.5,119C 461.833,128.667 444.167,138.333 426.5,148C 425.167,148.667 423.833,148.667 422.5,148C 364.006,116.254 305.673,84.2539 247.5,52C 265.667,41.9696 283.667,31.803 301.5,21.5 Z M 224.5,63.5 C 283.634,95.9008 342.634,128.567 401.5,161.5C 395.167,165 388.833,168.5 382.5,172C 381.5,172.667 380.5,172.667 379.5,172C 321.66,139.913 263.66,108.079 205.5,76.5C 204.167,75.8333 204.167,75.1667 205.5,74.5C 212.131,71.1695 218.465,67.5028 224.5,63.5 Z M 181.5,87.5 C 240.646,120.242 299.979,152.742 359.5,185C 340.333,195.5 321.167,206 302,216.5C 243.074,183.619 183.907,151.119 124.5,119C 143.666,108.636 162.666,98.1361 181.5,87.5 Z M 113.5,137.5 C 172.693,169.682 231.859,202.015 291,234.5C 291.667,299.5 291.667,364.5 291,429.5C 281.248,423.707 271.415,418.04 261.5,412.5C 274.183,353.036 256.516,304.869 208.5,268C 179.856,249.038 148.523,241.871 114.5,246.5C 113.5,210.173 113.167,173.839 113.5,137.5 Z M 412.5,179.5 C 413.661,193.994 413.828,208.661 413,223.5C 406,227.5 399,231.5 392,235.5C 391.333,220.833 391.333,206.167 392,191.5C 398.978,187.6 405.812,183.6 412.5,179.5 Z"/></g>
<g><path style="opacity:0.904" fill="#000000" d="M 511.5,223.5 C 511.5,226.833 511.5,230.167 511.5,233.5C 507.658,238.246 502.658,239.746 496.5,238C 491.082,233.345 490.082,227.845 493.5,221.5C 500.07,216.301 506.07,216.968 511.5,223.5 Z"/></g>
<g><path style="opacity:0.946" fill="#000000" d="M 97.5,319.5 C 106.332,320.158 110.165,324.825 109,333.5C 107.262,337.241 104.762,340.408 101.5,343C 123.86,343.104 146.193,343.77 168.5,345C 198.338,355.168 209.504,375.668 202,406.5C 195.704,422.466 184.204,432.299 167.5,436C 151.167,436.667 134.833,436.667 118.5,436C 112.136,431.66 110.969,426.16 115,419.5C 115.903,418.299 117.069,417.465 118.5,417C 133.78,415.731 149.113,415.064 164.5,415C 183.132,407.001 187.965,393.834 179,375.5C 175.429,370.969 170.929,367.802 165.5,366C 143.876,364.39 122.209,364.056 100.5,365C 103,367.5 105.5,370 108,372.5C 110.912,385.92 105.746,390.754 92.5,387C 83.6667,378.167 74.8333,369.333 66,360.5C 64.0873,356.471 64.0873,352.471 66,348.5C 74.8333,339.667 83.6667,330.833 92.5,322C 94.3146,321.243 95.9812,320.41 97.5,319.5 Z"/></g>
<g><path style="opacity:0.9" fill="#000000" d="M 45.5,454.5 C 54.5738,456.313 57.7404,461.646 55,470.5C 51.3449,475.275 46.5116,476.775 40.5,475C 33.8851,468.546 33.8851,462.213 40.5,456C 42.3817,455.802 44.0484,455.302 45.5,454.5 Z"/></g>
</svg>
